<svg xmlns="http://www.w3.org/2000/svg" aria-hidden="true" style="position:absolute;width:0;height:0;overflow:hidden">
  <defs>
    <symbol id="icon-arrow-right" viewBox="0 0 32 32">
      <path d="M11.501 6.727a2.257 2.257 0 0 0-.772.776l-.006.01a1.15 1.15 0 0 0 .005.99l-.003-.007c.075.149 1.313 1.427 3.745 3.864L18.105 16l-3.635 3.64c-2.432 2.437-3.671 3.715-3.745 3.864-.235.469-.113.977.34 1.431s.96.575 1.431.34c.312-.156 8.623-8.467 8.779-8.779.07-.145.111-.316.112-.496a1.175 1.175 0 0 0-.115-.503l.003.007c-.156-.312-8.467-8.623-8.779-8.779a1.173 1.173 0 0 0-1.002.005l.007-.003z"/>
    </symbol>
    <symbol id="icon-close_menu" viewBox="0 0 32 32">
      <path d="M7.501 6.727a2.257 2.257 0 0 0-.772.776l-.006.01a1.15 1.15 0 0 0 .005.99l-.003-.007c.075.149 1.313 1.427 3.745 3.864L14.105 16l-3.635 3.64c-2.432 2.437-3.671 3.715-3.745 3.864-.235.469-.113.977.34 1.431s.961.575 1.431.34c.149-.075 1.427-1.313 3.864-3.745L16 17.895l3.64 3.635c2.437 2.432 3.715 3.671 3.864 3.745.469.235.977.113 1.431-.34s.575-.961.34-1.431c-.075-.149-1.313-1.427-3.745-3.864L17.895 16l3.635-3.64c2.432-2.437 3.671-3.715 3.745-3.864.235-.469.113-.977-.34-1.431s-.961-.575-1.431-.34c-.149.075-1.427 1.313-3.864 3.745L16 14.105l-3.64-3.635C9.923 8.038 8.645 6.799 8.496 6.725a1.173 1.173 0 0 0-1.002.005l.007-.003z"/>
    </symbol>
    <symbol id="icon-favorite" viewBox="0 0 32 32">
      <path d="M9.013 3.131c-4.612.197-8.188 4.272-7.788 8.873A8.125 8.125 0 0 0 3.4 16.935l-.004-.004c.268.295 3.124 3.17 6.347 6.386 5.212 5.207 5.879 5.854 6.057 5.886.51.092.087.478 6.459-5.886a659.828 659.828 0 0 0 6.255-6.292l.102-.105c1.593-1.749 2.364-3.975 2.164-6.236-.1-1.111-.276-1.797-.713-2.763-1.164-2.504-3.482-4.3-6.252-4.714l-.045-.006a11.422 11.422 0 0 0-2.361.004l.049-.004a8.377 8.377 0 0 0-3.831 1.591c-.353.294-.671.583-.975.885l.001-.001-.654.638-.652-.64c-.303-.302-.62-.59-.949-.865l-.023-.019a8.307 8.307 0 0 0-5.377-1.658l.017-.001zM10.51 4.99c.921.174 1.749.51 2.523 1.022.224.148.834.695 1.477 1.328 1.556 1.527 1.422 1.527 2.98.002 1.125-1.104 1.527-1.419 2.281-1.79a6.584 6.584 0 0 1 2.874-.65c.378 0 .748.031 1.108.091l-.039-.005a6.508 6.508 0 0 1 5.013 4.361l.013.046c.224.706.288 1.127.29 1.938v.055a6.284 6.284 0 0 1-1.272 3.799l.012-.016c-.21.286-2.217 2.334-6.043 6.162l-5.726 5.733-5.726-5.733c-3.956-3.959-5.829-5.872-6.055-6.18a6.785 6.785 0 0 1-1.178-2.785l-.006-.041a8.406 8.406 0 0 1 .004-2.028l-.004.041c.457-2.715 2.555-4.868 5.207-5.348a8.388 8.388 0 0 1 2.313.003l-.044-.005z"/>
    </symbol>
    <symbol id="icon-home" viewBox="0 0 32 32">
      <path d="M15.653 1.851c-.089.048-2.901 2.219-6.252 4.825-4.139 3.221-6.123 4.795-6.187 4.912-.089.162-.094.615-.094 7.879 0 7.195.007 7.732.094 8.075a3.71 3.71 0 0 0 2.559 2.573l.026.006c.336.085 1.035.092 10.201.092s9.865-.007 10.201-.092a3.71 3.71 0 0 0 2.579-2.554l.006-.026c.087-.343.094-.88.094-8.075 0-7.264-.005-7.717-.094-7.879-.064-.117-2.048-1.692-6.188-4.912-3.351-2.608-6.171-4.78-6.263-4.828a.732.732 0 0 0-.685.006l.004-.002zm5.908 6.256 5.527 4.293-.021 14.773-.13.252a2.156 2.156 0 0 1-.834.839l-.263.135-4.933.03v-6.181c0-3.98-.02-6.283-.055-6.468-.071-.382-.251-.562-.633-.633-.178-.034-1.767-.055-4.219-.055s-4.041.021-4.219.055c-.382.071-.562.251-.633.633-.036.185-.055 2.487-.055 6.468v6.181l-4.933-.03-.252-.13a2.156 2.156 0 0 1-.839-.834l-.006-.011-.13-.252-.021-14.773 5.531-4.302c.71-.591 2.52-1.998 4.339-3.393l1.222-.9c.018.005 2.519 1.941 5.557 4.302zm-2.468 14.56v5.76h-6.187v-11.52h6.187v5.76z"/>
    </symbol>
    <symbol id="icon-menu" viewBox="0 0 32 32">
      <path d="M3.492 6.741c-.321.1-.495.235-.655.507-.129.22-.144.297-.144.752 0 .457.015.531.148.759.1.166.234.3.395.397l.005.003.252.148h25.021l.26-.16c.329-.204.507-.529.544-1.001.037-.459-.088-.885-.333-1.129-.376-.376.605-.349-13.008-.345-9.711.003-12.316.017-12.485.071zm0 8c-.321.1-.495.235-.655.507-.129.22-.144.297-.144.752 0 .457.015.531.148.759.1.166.234.3.395.397l.005.003.252.148h25.021l.26-.16c.329-.204.507-.529.544-1.001.037-.459-.088-.885-.333-1.129-.376-.376.605-.349-13.008-.345-9.711.003-12.316.017-12.485.071zm0 8c-.321.1-.495.235-.655.507-.129.22-.144.297-.144.752 0 .457.015.531.148.759.1.166.234.3.395.397l.005.003.252.148h25.021l.26-.16c.329-.204.507-.529.544-1.001.037-.459-.088-.885-.333-1.129-.376-.376.605-.349-13.008-.345-9.711.003-12.316.017-12.485.071z"/>
    </symbol>
    <symbol id="icon-moon" viewBox="0 0 32 32">
      <path d="M14.321 2.939c-2.062.303-3.803.949-5.394 1.998-3.241 2.138-5.218 5.207-5.868 9.117-.136.82-.139 2.891-.005 3.738.472 2.974 1.679 5.381 3.727 7.427 2.036 2.037 4.453 3.255 7.38 3.718.843.133 2.415.158 3.322.053 1.727-.195 3.3-.698 4.716-1.456l-.07.034a12.346 12.346 0 0 0 3.168-2.318l.001-.001c2.141-2.158 3.445-4.834 3.771-7.739.061-.536.059-.619-.024-.837-.102-.268-.443-.651-.651-.728a1.212 1.212 0 0 0-.782.033l.008-.003c-.087.046-.381.229-.651.405a8.092 8.092 0 0 1-4.526 1.369 8.14 8.14 0 0 1-5.691-2.309l.002.002a8.183 8.183 0 0 1-2.455-6.774l-.003.036c.146-1.356.568-2.514 1.364-3.744.329-.509.364-.59.384-.888.024-.393-.053-.658-.268-.902-.247-.282-.661-.346-1.455-.23zm-1.588 2.728c-.014.037-.111.331-.216.655a10.25 10.25 0 0 0-.51 3.225c0 4.349 2.656 8.078 6.434 9.653l.069.026c1.166.485 2.519.767 3.939.767 1.211 0 2.374-.205 3.456-.582l-.074.022c.294-.098.542-.171.553-.16.043.043-.343 1.003-.629 1.566-2.191 4.322-7.005 6.705-11.701 5.794-3.378-.655-6.206-2.786-7.727-5.819a10.729 10.729 0 0 1-1.145-4.858c0-4.271 2.461-7.968 6.043-9.748l.063-.028c.561-.273 1.275-.562 1.423-.574.026-.003.035.026.021.062z"/>
    </symbol>
    <symbol id="icon-read" viewBox="0 0 32 32">
      <path d="M2.402 3.152c-.329.064-.519.267-.587.629-.076.396-.076 20.041 0 20.437.071.382.251.562.633.633.181.036 2.075.055 5.18.055 4.816 0 4.9.002 5.259.112a3.137 3.137 0 0 1 2.036 1.915c.078.217.142.549.169.889.066.83.261 1.056.908 1.056.649 0 .846-.229.908-1.058.027-.352.085-.661.167-.887a3.145 3.145 0 0 1 2.037-1.915c.359-.11.443-.112 5.259-.112 3.106 0 4.999-.02 5.18-.055.382-.071.562-.251.633-.633.076-.396.076-20.041 0-20.437-.073-.391-.249-.562-.658-.638-.428-.078-8.791-.034-9.212.05a7.165 7.165 0 0 0-2.477.991l.029-.017c-.421.274-1.408 1.248-1.653 1.632-.059.108-.13.2-.213.281-.02 0-.146-.162-.281-.361a6.878 6.878 0 0 0-.715-.818l-.001-.001a6.096 6.096 0 0 0-3.865-1.75l-.019-.001c-.78-.066-8.384-.062-8.716.004zm9.269 1.861a4.477 4.477 0 0 1 3.309 3.285l.006.03c.103.434.107.636.107 8.16v7.716l-.361-.244a4.96 4.96 0 0 0-1.524-.689l-.035-.008-.507-.139-9.093-.039V4.905h3.826c3.639 0 3.849.005 4.272.107zm16.756 8.983v9.09l-9.093.039-.507.137c-.619.169-1.084.377-1.559.699l-.361.244V8.761l.128-.505a4.435 4.435 0 0 1 3.202-3.22l.484-.124 7.707-.005v9.09z"/>
    </symbol>
    <symbol id="icon-sun" viewBox="0 0 32 32">
      <path d="M15.511.724a.851.851 0 0 0-.573.591l-.001.006c-.076.273-.073 3.229.003 3.503.116.418.515.669 1.061.669s.945-.251 1.061-.669c.076-.274.079-3.23.003-3.503-.155-.561-.829-.82-1.553-.597zM5.457 4.907c-.401.23-.712.678-.709 1.024.002.358.187.614 1.155 1.595 1.143 1.158 1.42 1.384 1.751 1.42.34.04.66-.098.946-.405.44-.469.472-.928.102-1.41a22.097 22.097 0 0 0-1.17-1.222l-.006-.006c-1.239-1.221-1.478-1.336-2.069-.997zm20.205-.054c-.251.114-1.981 1.78-2.366 2.281-.396.514-.335 1.009.184 1.487.454.419.916.445 1.388.081.155-.12.709-.649 1.228-1.176.975-.989 1.154-1.237 1.155-1.606 0-.236-.259-.696-.491-.87-.434-.325-.707-.373-1.099-.197zM15.04 8.459c-.71.13-1.058.213-1.466.352-2.575.881-4.448 3.005-5.024 5.696-.137.645-.137 2.342 0 2.987.576 2.691 2.449 4.815 5.024 5.696.872.297 1.278.358 2.426.358s1.551-.061 2.427-.358a9.369 9.369 0 0 0 1.836-.904l-.038.023c.715-.474 1.591-1.341 2.05-2.031a8.486 8.486 0 0 0 1.163-2.726l.011-.058c.137-.645.137-2.344 0-2.987-.632-2.981-2.929-5.293-5.852-5.938l-.051-.009c-.387-.087-2.188-.158-2.507-.101zm2.24 2.368c.623.151 1.525.605 2.065 1.038a5.678 5.678 0 0 1 1.828 2.843l.009.04c.14.573.168 1.768.05 2.293a5.411 5.411 0 0 1-2.881 3.721l-.031.014c-.832.408-1.347.526-2.321.526s-1.489-.117-2.319-.526a5.222 5.222 0 0 1-2.443-2.424l-.014-.031c-.408-.832-.526-1.347-.526-2.321s.117-1.489.526-2.319a5.391 5.391 0 0 1 3.988-2.957l.03-.004c.466-.073 1.519-.018 2.037.107zM1.262 14.958a.797.797 0 0 0-.541.577l-.001.005c-.213.718.044 1.37.602 1.524.273.076 3.229.073 3.503-.003.425-.117.67-.518.666-1.086-.003-.504-.181-.821-.556-.994-.194-.088-.373-.098-1.841-.098-1.24.002-1.675.018-1.832.075zm25.805.021c-.378.175-.555.491-.558.995-.005.578.242.972.683 1.091.154.041.754.055 1.864.044 1.525-.015 1.65-.023 1.818-.122.254-.151.37-.326.443-.681a1.233 1.233 0 0 0-.002-.621l.002.009c-.073-.355-.189-.53-.443-.68-.169-.101-.29-.108-1.886-.12-1.571-.014-1.725-.006-1.92.085zM7.36 23.131c-.102.049-.683.582-1.291 1.186-1.138 1.132-1.32 1.371-1.321 1.752-.003.498.677 1.184 1.172 1.182.369-.002.617-.18 1.606-1.155 1.21-1.195 1.391-1.423 1.422-1.798.027-.329-.059-.541-.354-.85-.373-.393-.829-.51-1.234-.317zm16.454-.006c-.28.172-.509.402-.673.675l-.005.009a.782.782 0 0 0-.084.494l-.001-.004c.03.375.212.605 1.422 1.798.981.968 1.237 1.154 1.595 1.155.498.003 1.186-.684 1.182-1.182-.002-.358-.187-.614-1.155-1.595-1.222-1.239-1.423-1.396-1.821-1.419a.846.846 0 0 0-.467.072l.005-.002zm-8.312 3.459a.85.85 0 0 0-.542.526l-.002.006c-.072.187-.081.471-.067 1.899.015 1.566.023 1.69.123 1.859.149.254.325.37.68.443a1.227 1.227 0 0 0 .621-.002l-.009.002c.355-.073.53-.189.681-.443.099-.168.107-.293.122-1.818.018-1.812-.003-1.987-.277-2.261-.277-.277-.876-.372-1.33-.21z"/>
    </symbol>
    <symbol id="icon-heart" viewBox="0 0 32 32">
      <path stroke-linejoin="round" stroke-linecap="round" stroke-miterlimit="4" stroke-width="1.7778" d="M27.787 6.146c-1.327-1.328-3.161-2.149-5.187-2.149s-3.859 0.821-5.187 2.149l-1.413 1.413-1.413-1.413c-1.325-1.315-3.151-2.128-5.166-2.128-4.051 0-7.335 3.284-7.335 7.335 0 2.015 0.813 3.841 2.128 5.167l11.786 11.786 11.787-11.787c1.328-1.327 2.149-3.161 2.149-5.187s-0.821-3.859-2.149-5.187l-0-0z"></path>
    </symbol>
    <symbol id="icon-small-heart" viewBox="0 0 32 32">
      <path d="M9.334 4c-3.682 0-6.668 2.954-6.668 6.6 0 2.942 1.168 9.926 12.652 16.986 0.194 0.12 0.43 0.191 0.682 0.191s0.488-0.071 0.688-0.194l-0.006 0.003c11.484-7.060 12.652-14.044 12.652-16.986 0-3.646-2.986-6.6-6.668-6.6-3.68 0-6.666 4-6.666 4s-2.986-4-6.666-4z"></path>
    </symbol>
    <symbol id="icon-small-heart--empty" viewBox="0 0 32 32">
      <path stroke-linejoin="round" stroke-linecap="round" stroke-miterlimit="4" stroke-width="2" d="M9.334 4c-3.682 0-6.668 2.954-6.668 6.6 0 2.942 1.168 9.926 12.652 16.986 0.194 0.12 0.43 0.191 0.682 0.191s0.488-0.071 0.688-0.194l-0.006 0.003c11.484-7.060 12.652-14.044 12.652-16.986 0-3.646-2.986-6.6-6.668-6.6-3.68 0-6.666 4-6.666 4s-2.986-4-6.666-4z"></path>
    </symbol>
    <symbol id="icon-search" viewBox="0 0 34 32">
      <path d="M14.666 26.5c2.96 0 5.832-0.94 8.162-2.672l7.328 6.96 2.356-2.24-7.328-6.96c1.744-2.087 2.806-4.795 2.816-7.752v-0.002c0-6.984-5.98-12.668-13.334-12.668-7.352 0-13.332 5.684-13.332 12.668s5.98 12.666 13.332 12.666zM14.666 4.334c5.516 0 10 4.26 10 9.5s-4.484 9.5-10 9.5c-5.514 0-10-4.26-10-9.5s4.486-9.5 10-9.5z"></path>
    </symbol>
    <symbol id="icon-kalendar" viewBox="0 0 32 32">
      <path d="M23.408 4.444h5.925c0.818 0 1.481 0.663 1.481 1.481v0 23.705c0 0.818-0.663 1.481-1.481 1.481v0h-26.667c-0.818 0-1.481-0.663-1.481-1.481v0-23.705c0-0.818 0.663-1.481 1.481-1.481v0h5.925v-2.964h2.964v2.964h8.889v-2.964h2.964v2.964zM27.852 16.297h-23.705v11.851h23.705v-11.851zM20.444 7.408h-8.889v2.962h-2.964v-2.962h-4.444v5.925h23.705v-5.925h-4.444v2.962h-2.964v-2.962zM7.111 19.259h2.964v2.964h-2.964v-2.964zM14.519 19.259h2.962v2.964h-2.962v-2.964zM21.925 19.259h2.964v2.964h-2.964v-2.964z"></path>
    </symbol>
    <symbol id="icon-vector-down" viewBox="0 0 32 32">
      <path d="M3.76 9.143l-3.76 3.479 16 14.807 16-14.807-3.76-3.479-12.24 11.303-12.24-11.303z"></path>
    </symbol>
    <symbol id="icon-vector-up" viewBox="0 0 32 32">
      <path d="M3.76 25.143l-3.76-3.479 16-14.807 16 14.807-3.76 3.479-12.24-11.303-12.24 11.303z"></path>
    </symbol>


  </defs>
</svg>
